<?xml version="1.0" standalone="no"?>
<!DOCTYPE svg PUBLIC "-//W3C//DTD SVG 20010904//EN"
 "http://www.w3.org/TR/2001/REC-SVG-20010904/DTD/svg10.dtd">
<svg version="1.0" xmlns="http://www.w3.org/2000/svg"
 width="700.000000pt" height="700.000000pt" viewBox="0 0 700.000000 700.000000"
 preserveAspectRatio="xMidYMid meet">
<metadata>
Created by potrace 1.11, written by Peter Selinger 2001-2013
</metadata>
<g transform="translate(0.000000,700.000000) scale(0.100000,-0.100000)"
fill="#000000" stroke="none">
<path d="M3370 6989 c-19 -5 -48 -11 -65 -14 -44 -8 -150 -43 -225 -73 -289
-117 -579 -382 -782 -712 -84 -137 -248 -487 -248 -530 0 -5 -5 -21 -12 -37
-6 -15 -12 -32 -14 -38 -1 -5 -12 -44 -24 -85 -12 -41 -24 -83 -26 -92 -2 -10
-6 -28 -10 -40 -3 -13 -7 -34 -10 -47 -10 -50 -20 -56 -101 -70 -283 -45 -726
-200 -918 -319 -22 -14 -40 -24 -40 -22 0 2 -13 -5 -30 -15 -358 -219 -583
-449 -730 -745 -39 -79 -97 -233 -109 -290 -3 -14 -10 -45 -15 -70 -13 -60
-14 -344 -1 -411 6 -30 13 -65 15 -79 9 -47 53 -175 86 -250 151 -343 465
-645 889 -856 183 -91 425 -179 620 -225 52 -12 100 -26 106 -31 6 -5 14 -31
18 -59 14 -104 83 -371 130 -506 188 -531 473 -928 829 -1157 125 -79 294
-152 462 -197 34 -10 111 -14 240 -14 221 0 249 4 412 57 119 38 280 120 385
194 74 53 273 240 324 304 151 191 291 432 369 635 15 39 31 79 36 90 23 52
82 250 107 360 l19 80 46 12 c25 6 61 13 79 16 45 7 108 23 271 68 364 102
674 254 937 457 80 62 300 276 300 292 0 4 9 18 21 31 110 125 250 432 279
612 15 95 12 342 -5 435 -41 213 -137 420 -285 614 -38 49 -203 216 -270 272
-150 126 -477 307 -704 391 -111 41 -397 125 -425 125 -27 0 -37 18 -49 90
-64 379 -223 794 -416 1090 -147 226 -347 430 -544 557 -134 85 -333 167 -482
198 -81 17 -374 19 -440 4z m354 -646 c190 -44 409 -214 551 -428 63 -95 148
-269 193 -400 40 -112 112 -398 103 -407 -3 -3 -42 -9 -86 -12 -44 -4 -91 -9
-105 -11 -14 -3 -39 -7 -56 -9 -74 -10 -256 -51 -363 -82 -353 -104 -662 -263
-951 -491 -101 -80 -275 -247 -345 -332 -54 -65 -59 -65 -70 9 -3 25 -10 70
-15 100 -10 60 -20 157 -26 235 -4 62 -4 336 0 390 5 59 17 183 20 197 7 34
16 85 20 108 9 59 57 231 86 310 29 82 132 300 151 324 5 6 25 36 45 66 87
134 200 251 304 318 88 56 219 111 300 125 50 9 186 4 244 -10z m-1820 -1858
c6 -73 13 -132 21 -175 3 -14 10 -52 15 -85 6 -33 26 -118 45 -190 141 -541
444 -1031 850 -1375 61 -52 65 -60 28 -61 -15 0 -35 -2 -43 -4 -46 -9 -164
-25 -225 -30 -38 -3 -90 -8 -115 -10 -60 -5 -332 -5 -395 0 -80 6 -174 18
-240 29 -378 66 -729 232 -946 446 -249 247 -323 553 -198 817 100 209 275
379 522 508 57 30 134 66 173 80 38 14 76 29 84 32 8 3 17 7 20 8 103 32 208
62 240 68 3 1 37 9 75 18 50 12 72 13 76 5 4 -6 9 -42 13 -81z m3096 -48 c14
-3 48 -8 75 -11 352 -43 676 -173 941 -378 165 -127 289 -315 331 -500 4 -18
7 -82 7 -143 0 -131 -23 -209 -101 -338 -178 -295 -531 -505 -1048 -623 -55
-12 -101 -22 -101 -21 -3 3 -14 92 -20 153 -2 33 -7 66 -9 74 -2 8 -7 35 -10
60 -3 25 -8 52 -10 60 -2 8 -7 31 -10 50 -33 193 -149 522 -258 730 -68 130
-188 320 -250 396 -8 10 -39 48 -68 84 -74 90 -211 230 -291 297 -38 30 -68
58 -68 62 0 4 39 13 88 19 48 7 97 14 109 16 12 3 57 7 100 11 42 3 79 7 81 9
5 6 484 -1 512 -7z m-1364 -477 c244 -85 382 -312 339 -555 -37 -203 -257
-381 -475 -386 -114 -2 -192 25 -296 104 -182 138 -235 384 -128 602 38 79 81
129 154 179 47 32 143 70 200 79 51 7 152 -4 206 -23z m759 -1091 c39 -197 50
-326 50 -589 0 -241 -2 -262 -36 -460 -59 -352 -224 -698 -436 -918 -75 -78
-217 -182 -247 -182 -8 0 -17 -4 -20 -9 -6 -10 -107 -48 -151 -57 -16 -3 -68
-8 -115 -11 -108 -6 -197 14 -306 68 -305 153 -515 455 -652 939 -32 113 -58
237 -51 244 2 2 38 7 79 10 344 30 744 150 1060 318 105 56 104 56 210 124
194 124 439 341 565 501 22 28 41 50 43 48 1 -1 5 -13 7 -26z"/>
</g>
</svg>
