<svg xmlns="http://www.w3.org/2000/svg" style="isolation:isolate" viewBox="0 0 371.773 512"><defs><clipPath id="a"><path d="M0 0h371.773v512H0z"/></clipPath></defs><g clip-path="url(#a)"><clipPath id="b"><path fill="#FFF" d="M0 0h371.773v512H0V0z"/></clipPath><g clip-path="url(#b)"><path fill="#008CEB" fill-rule="evenodd" d="M334.855 209.886h-36.884v-97.819C297.896 50.205 247.765.074 185.903 0 124.033.056 73.892 50.197 73.836 112.067v97.819H36.918C16.573 209.886 0 226.425 0 246.804v228.278C0 495.427 16.573 512 36.918 512h297.937c20.379 0 36.918-16.573 36.918-36.918V246.804c0-20.379-16.539-36.918-36.918-36.918zm-236.43-97.819c.075-48.276 39.202-87.388 87.478-87.444 48.271.056 87.389 39.173 87.444 87.444v97.819H98.425v-97.819zm236.43 375.344c6.809 0 12.328-5.52 12.328-12.329V246.804c0-6.809-5.519-12.328-12.328-12.328H36.918a12.296 12.296 0 0 0-12.295 12.328v228.278c0 6.804 5.491 12.329 12.295 12.329h297.937z"/></g></g></svg>
