<svg xmlns="http://www.w3.org/2000/svg" viewBox="0 0 45.76 30"><defs><style>.a{fill:none;stroke-miterlimit:10;}.b,.c{stroke:none;}.c{fill:#181b1f;}</style></defs><g class="a"><path class="b" d="M37.82 30H11.47a11.47 11.47 0 0 1-0.49-22.93 14.99 14.99 0 0 1 27.7 7.09A7.94 7.94 0 0 1 37.82 30Z"/><path class="c" d="M37.82 28C41.09 28 43.76 25.33 43.76 22.06 43.76 20.59 43.21 19.18 42.23 18.08 41.24 16.99 39.91 16.31 38.46 16.15L36.77 15.97 36.68 14.27C36.5 10.96 35.06 7.87 32.64 5.58 30.22 3.27 27.04 2 23.7 2 21.51 2 19.33 2.57 17.4 3.64 15.48 4.72 13.84 6.27 12.68 8.13L12.12 9.02 11.07 9.07C8.63 9.17 6.35 10.2 4.65 11.97 2.94 13.75 2 16.08 2 18.53 2 23.75 6.25 28 11.47 28L37.82 28M37.82 30L11.47 30C5.15 30 0 24.85 0 18.53 0 12.37 4.88 7.33 10.98 7.07 13.71 2.7 18.54 0 23.7 0 31.69 0 38.24 6.28 38.68 14.16 42.65 14.59 45.76 17.97 45.76 22.06 45.76 26.44 42.2 30 37.82 30Z"/></g></svg>
