<svg width="92pt" height="92pt" viewBox="0 0 92 92" xmlns="http://www.w3.org/2000/svg"><path fill="#fff" d="M45.23 0h1.65c1.81.66 3.82 1.47 4.65 3.37 3.81 7.6 7.18 15.43 10.93 23.06 8.21 1.45 16.51 2.37 24.7 3.94 2.5.41 4.1 2.61 4.84 4.88v2.24c-.82 2.99-3.36 4.92-5.39 7.08-4.64 4.92-9.49 9.63-14.1 14.59 1.36 8.65 2.87 17.27 4.16 25.92.52 3.28-2.16 5.94-5.05 6.92h-1.77c-8.37-3.25-15.8-8.55-23.84-12.54C38 83.42 30.6 88.62 22.32 92h-1.16c-3.32-.44-6.38-3.42-5.83-6.94 1.27-8.65 2.8-17.27 4.16-25.91-4.82-5.08-9.78-10.02-14.62-15.09C2.99 42.09.75 40.24 0 37.5v-2.09c.64-2.37 2.3-4.62 4.85-5.04 8.18-1.55 16.46-2.54 24.68-3.92 3.63-7.4 6.94-14.94 10.54-22.35.86-2.22 2.91-3.56 5.16-4.1m.02 5.25c-3.7 7.33-6.96 14.88-10.54 22.26-.94 1.98-2.64 3.71-4.89 4.05-8.12 1.45-16.36 2.29-24.44 3.95l-.23 1.36c5.85 6.48 12.23 12.45 18.09 18.9 1.25 1.4 1.46 3.39 1.14 5.17-1.14 7.01-2.28 14.01-3.43 21.01.12 1.51-1.66 4.58.75 4.96 7.3-3.68 14.27-8.01 21.54-11.74 1.96-1.12 4.32-.77 6.21.32 6.59 3.54 13.06 7.33 19.66 10.86l2.39.48c-.69-9.32-3.1-18.44-4.01-27.74.03-2.8 2.46-4.56 4.18-6.42 4.99-5.35 10.31-10.38 15.18-15.82-.05-.33-.16-1-.22-1.33-8.08-1.68-16.33-2.51-24.46-3.96-1.92-.39-3.72-1.59-4.55-3.4-3.75-7.58-7.06-15.38-10.87-22.92-.38 0-1.13 0-1.5.01z"/></svg>