<svg xmlns="http://www.w3.org/2000/svg" style="isolation:isolate" viewBox="0 0 479.699 512"><defs><clipPath id="a"><path d="M0 0h479.699v512H0z"/></clipPath></defs><g fill="#008CEB" clip-path="url(#a)"><path d="M479.699 486.4c0 14.139-11.696 25.6-26.121 25.6-14.426 0-26.121-11.461-26.121-25.6v-51.2c0-42.284-36.019-76.799-80.742-76.799H132.986c-44.722 0-80.742 34.515-80.742 76.799v51.2c0 14.139-11.695 25.6-26.122 25.6S0 500.539 0 486.4v-51.2c0-70.822 59.67-127.999 132.986-127.999h213.729c73.314 0 132.984 57.177 132.984 127.999v51.2z"/><path fill-rule="evenodd" d="M106.864 127.999c0 70.822 59.67 127.999 132.986 127.999 73.317 0 132.986-57.177 132.986-127.999S313.167 0 239.85 0c-73.316 0-132.986 57.177-132.986 127.999zm213.728 0c0 42.285-36.02 76.8-80.742 76.8s-80.742-34.515-80.742-76.8S195.128 51.2 239.85 51.2s80.742 34.514 80.742 76.799z"/></g></svg>
