<svg xmlns="http://www.w3.org/2000/svg" viewBox="0 0 14 17"><path fill="#008ceb" fill-rule="evenodd" d="M8.153 16.028A1.513 1.513 0 0 1 7 16.545a1.54 1.54 0 0 1-1.153-.497 1.638 1.638 0 0 1-.478-1.173h3.262c0 .45-.16.835-.478 1.153zm4.216-4.454L14 13.244v.836H0v-.836l1.63-1.67V7.04c0-1.246.392-2.353 1.174-3.321a5.352 5.352 0 0 1 2.963-1.89v-.596c0-.345.113-.636.338-.875C6.33.119 6.63 0 7 0s.67.12.895.358c.225.239.338.53.338.875v.597a5.352 5.352 0 0 1 2.963 1.889 5.136 5.136 0 0 1 1.173 3.32v4.535z"/></svg>
