<svg xmlns="http://www.w3.org/2000/svg" width="32" height="24"><defs><clipPath id="clip_0"><rect x="-584.52" y="-416.99" width="993.28" height="2322.18" clip-rule="evenodd"/></clipPath></defs><g clip-path="url(#clip_0)"><path stroke="none" fill="#262935" transform="matrix(0.97 0 0 0.97 0.390015 1.07996)" d="M20.33 1.02L13.81 23.59C13.76 23.74 13.67 23.85 13.54 23.93 13.4 24.01 13.27 24.02 13.13 23.97L12.04 23.68C11.89 23.63 11.78 23.54 11.7 23.41 11.63 23.27 11.61 23.13 11.66 22.98L18.18 0.41C18.23 0.26 18.32 0.15 18.45 0.07 18.58-0.01 18.72-0.02 18.86 0.03L19.94 0.32C20.1 0.37 20.21 0.46 20.28 0.59 20.36 0.73 20.38 0.87 20.33 1.02ZM10 19.67L9.12 20.55C9.01 20.66 8.87 20.72 8.72 20.72 8.57 20.72 8.44 20.66 8.32 20.55L0.17 12.4C0.06 12.29 0 12.15 0 12Q0 11.77 0.17 11.6L8.32 3.45C8.44 3.34 8.57 3.28 8.72 3.28 8.87 3.28 9.01 3.34 9.12 3.45L10 4.33C10.11 4.44 10.17 4.58 10.17 4.73 10.17 4.88 10.11 5.01 10 5.13L3.13 12 10 18.87Q10.17 19.04 10.17 19.27C10.17 19.42 10.11 19.56 10 19.67ZM23.67 20.55L31.81 12.4C31.93 12.29 31.99 12.15 31.99 12Q31.99 11.77 31.81 11.6L23.67 3.45C23.55 3.34 23.42 3.28 23.27 3.28Q23.04 3.28 22.86 3.45L21.99 4.33C21.87 4.44 21.81 4.58 21.81 4.73 21.81 4.88 21.87 5.01 21.99 5.13L28.86 12 21.99 18.87C21.87 18.99 21.81 19.12 21.81 19.27 21.81 19.42 21.87 19.56 21.99 19.67L22.86 20.55C22.98 20.66 23.11 20.72 23.27 20.72 23.42 20.72 23.55 20.66 23.67 20.55Z" fill-rule="evenodd"/></g></svg>
