<svg xmlns="http://www.w3.org/2000/svg" style="isolation:isolate" viewBox="0 0 512 512"><defs><clipPath id="a"><path d="M0 0h512v512H0z"/></clipPath></defs><g clip-path="url(#a)"><path fill="#008ceb" d="M390.868 260.998c35.76 0 64.847-37.951 64.847-73.716 0-35.76-29.087-64.853-64.847-64.853-35.76 0-64.847 29.093-64.847 64.853.006 35.765 29.093 73.716 64.847 73.716zM439.558 261.669c-12.583 9.58-28.279 15.286-45.271 15.286h-6.827c-16.998 0-32.699-5.706-45.271-15.286-16.43 2.651-31.249 10.001-43.19 20.537a132.029 132.029 0 0 1 3.066 3.413 133.858 133.858 0 0 1 32.301 87.193c0 4.016-.586 7.844-1.587 11.531 17.249 3.333 37.046 5.233 58.095 5.233 66.9 0 121.126-19.131 121.126-42.723-.006-42.945-31.374-78.551-72.442-85.184zM126.576 255.707c9.08 4.278 18.904 6.724 29.156 6.724 10.262 0 20.093-2.446 29.183-6.735 31.619-14.928 54.192-52.332 54.192-88.041 0-45.977-37.398-83.386-83.375-83.386S72.35 121.684 72.35 167.655c.012 35.721 22.591 73.136 54.226 88.052zM218.326 263.285c-7.635 5.814-16.191 10.478-25.367 13.823-10.257 3.738-21.304 5.831-32.836 5.831h-8.777c-11.526 0-22.557-2.087-32.808-5.819-9.193-3.345-17.755-8.01-25.401-13.835C40.322 271.818 0 317.59 0 372.806c0 30.327 69.722 54.925 155.732 54.925 80.258 0 146.311-21.424 154.787-48.929.609-1.974.944-3.971.944-6.002 0-28.046-10.416-53.634-27.574-73.164-16.622-18.921-39.577-32.147-65.563-36.351z"/></g></svg>
