<svg xmlns="http://www.w3.org/2000/svg" viewBox="0 0 51.997 48"><path fill="#008ceb" d="M36.954 48H8.133a7.673 7.673 0 0 1-4.635-1.672 8.824 8.824 0 0 1-3.109-4.109 5.7 5.7 0 0 1-.062-3.969c0-.082.031-.358.094-.844s.1-.864.125-1.156a1.753 1.753 0 0 0-.094-.672 1.549 1.549 0 0 1-.094-.609 1.962 1.962 0 0 1 .249-.656 7.8 7.8 0 0 1 .516-.734 7.61 7.61 0 0 0 .515-.734 20.89 20.89 0 0 0 1.4-2.859 16.965 16.965 0 0 0 .937-2.859 2.419 2.419 0 0 0 .023-.94 2.754 2.754 0 0 1-.016-.875 2.64 2.64 0 0 1 .531-.875 5.127 5.127 0 0 0 .531-.719 19.138 19.138 0 0 0 1.311-2.875 12.8 12.8 0 0 0 .78-2.812 4.411 4.411 0 0 0-.077-1c-.073-.476-.068-.771.015-.876a2.527 2.527 0 0 1 .685-.955c.371-.36.6-.6.688-.7a12.985 12.985 0 0 0 1.327-2.641 11.9 11.9 0 0 0 .859-3.016 2.591 2.591 0 0 0-.094-.8 2.038 2.038 0 0 1-.062-.828 1.766 1.766 0 0 1 .281-.562 11 11 0 0 1 .563-.719c.244-.29.413-.5.53-.656a7.163 7.163 0 0 0 .516-.953c.18-.392.337-.76.468-1.093s.3-.717.5-1.125a5.4 5.4 0 0 1 .609-1 3.6 3.6 0 0 1 .825-.732 2.1 2.1 0 0 1 1.124-.36h.092a6.769 6.769 0 0 1 1.391.173l-.031.094A8.692 8.692 0 0 1 18.937 0h23.761a4.129 4.129 0 0 1 3.56 1.75 4.482 4.482 0 0 1 .562 4.063l-8.555 28.312c-.746 2.467-1.5 4.081-2.233 4.8S33.947 40 32.02 40H4.885a1.38 1.38 0 0 0-1.186.469 1.433 1.433 0 0 0-.032 1.344c.5 1.452 2.01 2.188 4.5 2.188h28.817a3.483 3.483 0 0 0 1.749-.484 2.251 2.251 0 0 0 1.094-1.3l9.371-30.842a5.044 5.044 0 0 0 .156-1.781 4.14 4.14 0 0 1 1.842 1.344 4.442 4.442 0 0 1 .563 4.031l-8.592 28.312a6.488 6.488 0 0 1-2.389 3.36A6.252 6.252 0 0 1 36.954 48zM17.345 16a1.31 1.31 0 0 0-.8.3 1.406 1.406 0 0 0-.516.7l-.655 2a.816.816 0 0 0 .062.7.684.684 0 0 0 .625.3h18.987a1.311 1.311 0 0 0 .8-.3 1.406 1.406 0 0 0 .516-.7l.655-2a.816.816 0 0 0-.062-.7.684.684 0 0 0-.625-.3zm2.591-8a1.311 1.311 0 0 0-.8.3 1.406 1.406 0 0 0-.516.7l-.656 2a.817.817 0 0 0 .063.7.684.684 0 0 0 .625.3h18.989a1.312 1.312 0 0 0 .8-.3 1.394 1.394 0 0 0 .515-.7l.656-2a.819.819 0 0 0-.063-.7.682.682 0 0 0-.625-.3z"/></svg>
