<svg xmlns="http://www.w3.org/2000/svg" viewBox="0 0 17 17"><path fill="#008ceb" fill-rule="evenodd" d="M3.392 11.892c1.25 1.836 2.953 2.754 5.108 2.754s3.858-.918 5.108-2.754c-.027-.745-.625-1.37-1.796-1.876-1.17-.505-2.274-.758-3.312-.758-1.038 0-2.142.246-3.312.738-1.17.493-1.77 1.124-1.796 1.896zm6.904-8.58c-.506-.505-1.104-.758-1.796-.758s-1.29.253-1.796.758c-.505.506-.758 1.104-.758 1.796s.253 1.29.758 1.796c.506.505 1.104.758 1.796.758s1.29-.253 1.796-.758c.505-.506.758-1.104.758-1.796s-.253-1.29-.758-1.796zm-7.822-.798C4.15.838 6.16 0 8.5 0c2.341 0 4.343.831 6.006 2.494C16.169 4.157 17 6.16 17 8.5s-.831 4.343-2.494 6.006C12.843 16.169 10.84 17 8.5 17s-4.343-.831-6.006-2.494C.831 12.843 0 10.84 0 8.5s.825-4.336 2.474-5.986z" opacity=".9"/></svg>
