<svg xmlns="http://www.w3.org/2000/svg" xmlns:xlink="http://www.w3.org/1999/xlink" viewBox="0 0 23 24"><defs><path id="a" d="M14.245 4.914c.222 0 .404.065.544.196.14.13.211.304.211.52 0 .227-.07.405-.21.536a.768.768 0 0 1-.545.196h-.756v9.457a2.09 2.09 0 0 1-.64 1.55c-.428.42-.964.631-1.608.631H3.76c-.644 0-1.18-.21-1.607-.63a2.09 2.09 0 0 1-.641-1.551V6.362H.755a.768.768 0 0 1-.544-.196C.07 6.036 0 5.856 0 5.63a.68.68 0 0 1 .21-.52.768.768 0 0 1 .545-.195H3.76V4.18c0-.613.213-1.13.64-1.55.428-.42.964-.63 1.608-.63h2.986c.644 0 1.18.21 1.607.63.428.42.641.938.641 1.551v.733h3.004zM5.252 4.18v.733h4.496V4.18a.72.72 0 0 0-.202-.528c-.134-.136-.319-.205-.553-.205H6.007c-.234 0-.419.069-.553.205a.72.72 0 0 0-.202.528zm6.744 11.638V6.362H3.004v9.457a.69.69 0 0 0 .202.52c.134.13.319.196.553.196h7.482c.234 0 .419-.066.553-.196a.691.691 0 0 0 .202-.52zM6.007 8.543c.223 0 .401.065.536.196.134.13.202.31.202.537v4.362a.694.694 0 0 1-.202.52.737.737 0 0 1-.536.196c-.234 0-.419-.066-.553-.196a.691.691 0 0 1-.202-.52V9.276c0-.227.067-.406.202-.537.134-.13.319-.196.553-.196zm2.986 0c.234 0 .419.065.553.196.135.13.202.31.202.537v4.362a.69.69 0 0 1-.202.52c-.134.13-.319.196-.553.196a.737.737 0 0 1-.536-.196.691.691 0 0 1-.202-.52V9.276c0-.227.068-.406.202-.537a.737.737 0 0 1 .536-.196z"/></defs><g fill="none" fill-rule="evenodd" transform="translate(4)"><use fill="#000" filter="url(#a)" xlink:href="#a"/><use fill="#FFF" xlink:href="#a"/></g></svg>