<svg xmlns="http://www.w3.org/2000/svg" viewBox="0 0 26 24"><path fill="#FFF" fill-rule="evenodd" d="M18.85 0C16.575 0 14.431 1.044 13 2.744 11.569 1.044 9.425 0 7.15 0 3.119 0 0 3.138 0 7.194 0 12.162 4.419 16.15 11.113 22.3L13 24l1.887-1.7C21.581 16.15 26 12.162 26 7.194 26 3.138 22.881 0 18.85 0zM13.8 20.581l-.263.244-.537.488-.537-.488-.263-.244c-3.15-2.893-5.875-5.393-7.669-7.625-1.75-2.168-2.525-3.944-2.525-5.762 0-1.431.525-2.744 1.482-3.707C4.438 2.526 5.737 2 7.15 2c1.631 0 3.25.763 4.319 2.031L13 5.85l1.531-1.819C15.6 2.756 17.22 2 18.85 2c1.412 0 2.712.525 3.669 1.487C23.475 4.45 24 5.77 24 7.194c0 1.812-.781 3.593-2.525 5.762-1.8 2.232-4.519 4.732-7.675 7.625z" opacity=".8"/></svg>