<svg xmlns="http://www.w3.org/2000/svg" style="isolation:isolate" viewBox="0 0 481.972 482.011"><defs><clipPath id="a"><path d="M0 0h481.972v482.011H0z"/></clipPath></defs><g fill="#b2b2b2" clip-path="url(#a)"><path d="M.102.15c40.1-.2 80.21-.12 120.31-.05.18 40.12.08 80.24.05 120.37-40.13.08-80.26.11-120.4-.02-.05-40.1-.12-80.21.04-120.3zM180.712.37c2.18-.25 4.38-.38 6.58-.36 37.98.13 75.96-.09 113.94.11a53636 53636 0 0 1 0 120.34c-40.17.05-80.35.2-120.53-.08.06-40 .05-80.01.01-120.01zM361.472.15c38.63-.28 77.27.03 115.91-.15 1.52.02 3.05.18 4.58.37-.08 40.01-.04 80.01-.02 120.02-40.16.25-80.33.15-120.49.05-.01-40.1-.04-80.19.02-120.29zM.162 180.78c40.06-.06 80.12-.03 120.18-.02.38 32.57.02 65.15.18 97.72-.15 7.58.18 15.16-.15 22.73-40.08.03-80.16.04-120.23-.01-.29-33.9-.03-67.81-.13-101.71.05-6.24-.11-12.48.15-18.71zM180.762 180.82c40.14-.15 80.28-.04 120.43-.06.12 40.15.11 80.3 0 120.45-40.15 0-80.3.1-120.45-.05 0-40.11-.03-80.23.02-120.34zM361.492 180.77c40.13-.01 80.27-.09 120.4.04.05 40.12.04 80.24.01 120.36-40.14.13-80.28.05-120.41.04-.08-40.15-.09-80.29 0-120.44zM.092 361.53c40.11-.14 80.22-.08 120.32-.02.16 40.11.13 80.24.01 120.35-40.1.14-80.22.17-120.33-.02-.12-40.1-.12-80.21 0-120.31zM180.722 361.6c40.17-.29 80.34-.11 120.5-.1.07 40.12.05 80.23.01 120.35-37.97.26-75.95-.01-113.93.13-2.21.04-4.43-.09-6.62-.39.12-40 .03-80 .04-119.99zM361.462 361.54c40.15-.1 80.32-.2 120.47.04.01 40-.07 80.01.04 120.01-2.87.44-5.77.46-8.65.39-37.29-.15-74.58.15-111.86-.15-.03-40.1-.04-80.19 0-120.29z"/></g></svg>
