<svg xmlns="http://www.w3.org/2000/svg" viewBox="0 0 18 18"><path fill="#fff" d="M15.15 6.545h.123a2.182 2.182 0 0 1 0 4.364h-.063a.473.473 0 0 0-.432.287l-.004.007a.47.47 0 0 0 .09.515l.043.044a2.182 2.182 0 1 1-3.087 3.087l-.038-.038a.476.476 0 0 0-.528-.092.472.472 0 0 0-.287.43v.124a2.182 2.182 0 1 1-4.363 0v-.049c-.005-.194-.127-.365-.352-.45a.47.47 0 0 0-.516.09l-.043.043a2.182 2.182 0 1 1-3.087-3.087l.038-.038a.476.476 0 0 0 .091-.528.472.472 0 0 0-.43-.287h-.123a2.182 2.182 0 1 1 0-4.363h.048c.194-.005.366-.127.45-.352a.47.47 0 0 0-.089-.516l-.043-.043a2.182 2.182 0 1 1 3.086-3.087l.038.038a.473.473 0 0 0 .522.094.727.727 0 0 1 .144-.046.47.47 0 0 0 .207-.387v-.123a2.182 2.182 0 1 1 4.364 0v.062c0 .189.113.359.294.436a.47.47 0 0 0 .515-.089l.044-.043a2.182 2.182 0 1 1 3.087 3.086l-.038.038a.473.473 0 0 0-.095.522c.02.046.036.095.047.144a.47.47 0 0 0 .386.207zm.057 2.91h.066a.727.727 0 0 0 0-1.455h-.127a1.927 1.927 0 0 1-1.764-1.168.727.727 0 0 1-.052-.192 1.93 1.93 0 0 1 .447-1.99l.044-.045a.727.727 0 1 0-1.03-1.029l-.05.05a1.925 1.925 0 0 1-2.118.388 1.928 1.928 0 0 1-1.168-1.767v-.065a.727.727 0 0 0-1.455 0v.126a1.927 1.927 0 0 1-1.168 1.764.727.727 0 0 1-.192.053 1.93 1.93 0 0 1-1.99-.447l-.045-.044a.727.727 0 1 0-1.029 1.03l.05.05c.55.562.703 1.404.402 2.082a1.933 1.933 0 0 1-1.78 1.262h-.066a.727.727 0 0 0 0 1.455h.126a1.924 1.924 0 0 1 1.761 1.16 1.93 1.93 0 0 1-.391 2.132l-.044.044a.727.727 0 1 0 1.03 1.03l.05-.05c.562-.55 1.404-.703 2.082-.402a1.933 1.933 0 0 1 1.262 1.78v.066a.727.727 0 0 0 1.455 0v-.127a1.924 1.924 0 0 1 1.16-1.76 1.93 1.93 0 0 1 2.132.39l.044.045a.727.727 0 1 0 1.03-1.03l-.05-.05a1.927 1.927 0 0 1-.387-2.122 1.928 1.928 0 0 1 1.765-1.164zm-6.48 2.181a2.91 2.91 0 1 1 0-5.818 2.91 2.91 0 0 1 0 5.818zm0-1.454a1.455 1.455 0 1 0 0-2.91 1.455 1.455 0 0 0 0 2.91z"/></svg>