<svg xmlns="http://www.w3.org/2000/svg" style="isolation:isolate" viewBox="0 0 501.683 512"><defs><clipPath id="a"><path d="M0 0h501.683v512H0z"/></clipPath></defs><g clip-path="url(#a)"><path fill="#E74133" d="M164.407 16.851C238.367-11.5 325.92-4.158 392.508 39.497c12.43 7.946 23.868 17.301 34.846 27.115l-.273.704c-24.342 24.486-48.813 48.842-73.212 73.27-19.888-19.011-45.465-32.058-72.681-36.355-22.014-3.621-44.833-2.514-66.272 3.823-47.65 13.794-86.605 52.635-101.952 99.623-28.882-21.769-57.018-44.516-85.972-66.2C55.084 84.718 105.19 39.296 164.407 16.851z"/><path fill="#F9BB00" d="M26.992 141.477c28.954 21.684 57.09 44.431 85.972 66.2-10.648 31.24-10.605 65.784.101 96.994-28.495 22.287-57.148 44.373-85.729 66.545-36.34-70.841-36.441-158.782-.344-229.739z"/><path fill="#3E82F1" d="M255.869 209.344c80.368-.043 160.737 0 241.105-.014 5.748 31.052 6.035 62.981 1.94 94.235-7.213 55.078-32.073 108.806-73.514 146.339-24.658-19.701-49.833-38.755-74.678-58.225-2.414-2.314-6.15-3.593-7.458-6.797 26.095-17.416 44.603-45.566 50.178-76.446-45.867.072-91.735.072-137.588 0 .015-33.035-.028-66.056.015-99.092z"/><path fill="#32A753" d="M27.336 371.216c28.581-22.172 57.234-44.258 85.729-66.545 17.258 52.966 64.964 95.256 120.402 103.475 37.648 5.302 78.012-1.653 109.797-23.264 1.308 3.204 5.044 4.483 7.458 6.797 24.845 19.47 50.02 38.524 74.678 58.225-37.562 35.306-87.755 55.495-138.737 60.538-29.271 2.989-59.03 1.825-87.784-4.785-73.428-16.28-138.177-67.076-171.543-134.441z"/></g></svg>
