<svg xmlns="http://www.w3.org/2000/svg" viewBox="0 0 40 50"><path fill="#262935" fill-rule="evenodd" d="M10.714 36.607v1.786a.858.858 0 0 1-.265.628.858.858 0 0 1-.628.265H8.036a.858.858 0 0 1-.628-.265.858.858 0 0 1-.265-.628v-1.786a.86.86 0 0 1 .265-.628.858.858 0 0 1 .628-.265H9.82a.86.86 0 0 1 .628.265.858.858 0 0 1 .265.628zm0-7.143v1.786a.858.858 0 0 1-.265.628.858.858 0 0 1-.628.265H8.036a.858.858 0 0 1-.628-.265.858.858 0 0 1-.265-.628v-1.786a.86.86 0 0 1 .265-.628.858.858 0 0 1 .628-.265H9.82a.86.86 0 0 1 .628.265.858.858 0 0 1 .265.628zm7.143 0v1.786a.858.858 0 0 1-.265.628.858.858 0 0 1-.628.265H15.18a.858.858 0 0 1-.628-.265.858.858 0 0 1-.265-.628v-1.786a.86.86 0 0 1 .265-.628.858.858 0 0 1 .628-.265h1.785c.242 0 .451.089.628.265a.858.858 0 0 1 .265.628zm-7.143-7.143v1.786a.858.858 0 0 1-.265.628.858.858 0 0 1-.628.265H8.036a.858.858 0 0 1-.628-.265.858.858 0 0 1-.265-.628v-1.786c0-.241.088-.45.265-.627a.858.858 0 0 1 .628-.265H9.82c.242 0 .452.088.628.265a.858.858 0 0 1 .265.627zm21.429 14.286v1.786a.858.858 0 0 1-.265.628.858.858 0 0 1-.628.265h-1.786a.858.858 0 0 1-.628-.265.858.858 0 0 1-.265-.628v-1.786c0-.242.089-.45.265-.628a.858.858 0 0 1 .628-.265h1.786c.242 0 .451.089.628.265a.858.858 0 0 1 .265.628zM25 29.464v1.786a.858.858 0 0 1-.265.628.858.858 0 0 1-.628.265h-1.786a.858.858 0 0 1-.627-.265.858.858 0 0 1-.265-.628v-1.786a.86.86 0 0 1 .265-.628.858.858 0 0 1 .627-.265h1.786c.242 0 .451.089.628.265a.858.858 0 0 1 .265.628zm-7.143-7.143v1.786a.858.858 0 0 1-.265.628.858.858 0 0 1-.628.265H15.18a.858.858 0 0 1-.628-.265.858.858 0 0 1-.265-.628v-1.786c0-.241.088-.45.265-.627a.858.858 0 0 1 .628-.265h1.785c.242 0 .451.088.628.265a.858.858 0 0 1 .265.627zm-7.143-7.142v1.785a.858.858 0 0 1-.265.628.858.858 0 0 1-.628.265H8.036a.858.858 0 0 1-.628-.265.858.858 0 0 1-.265-.628V15.18c0-.242.088-.452.265-.628a.858.858 0 0 1 .628-.265H9.82c.242 0 .452.088.628.265a.858.858 0 0 1 .265.628zm21.429 14.285v1.786a.858.858 0 0 1-.265.628.858.858 0 0 1-.628.265h-1.786a.858.858 0 0 1-.628-.265.858.858 0 0 1-.265-.628v-1.786c0-.242.089-.45.265-.628a.858.858 0 0 1 .628-.265h1.786c.242 0 .451.089.628.265a.858.858 0 0 1 .265.628zM25 22.321v1.786a.858.858 0 0 1-.265.628.858.858 0 0 1-.628.265h-1.786a.858.858 0 0 1-.627-.265.858.858 0 0 1-.265-.628v-1.786c0-.241.088-.45.265-.627a.858.858 0 0 1 .627-.265h1.786c.242 0 .451.088.628.265a.858.858 0 0 1 .265.627zm-7.143-7.142v1.785a.858.858 0 0 1-.265.628.858.858 0 0 1-.628.265H15.18a.858.858 0 0 1-.628-.265.858.858 0 0 1-.265-.628V15.18c0-.242.088-.452.265-.628a.858.858 0 0 1 .628-.265h1.785c.242 0 .451.088.628.265a.858.858 0 0 1 .265.628zm-7.143-7.143V9.82a.858.858 0 0 1-.265.628.858.858 0 0 1-.628.265H8.036a.858.858 0 0 1-.628-.265.858.858 0 0 1-.265-.628V8.036c0-.242.088-.451.265-.628a.858.858 0 0 1 .628-.265H9.82c.242 0 .452.088.628.265a.858.858 0 0 1 .265.628zM32.143 22.32v1.786a.858.858 0 0 1-.265.628.858.858 0 0 1-.628.265h-1.786a.858.858 0 0 1-.628-.265.858.858 0 0 1-.265-.628V22.32a.86.86 0 0 1 .265-.627.858.858 0 0 1 .628-.265h1.786c.242 0 .451.088.628.265a.858.858 0 0 1 .265.627zM25 15.18v1.785a.858.858 0 0 1-.265.628.858.858 0 0 1-.628.265h-1.786a.858.858 0 0 1-.627-.265.858.858 0 0 1-.265-.628V15.18c0-.242.088-.452.265-.628a.858.858 0 0 1 .627-.265h1.786c.242 0 .451.088.628.265a.858.858 0 0 1 .265.628zm-7.143-7.143V9.82a.858.858 0 0 1-.265.628.858.858 0 0 1-.628.265H15.18a.858.858 0 0 1-.628-.265.858.858 0 0 1-.265-.628V8.036c0-.242.088-.451.265-.628a.858.858 0 0 1 .628-.265h1.785c.242 0 .451.088.628.265a.858.858 0 0 1 .265.628zm14.286 7.143v1.785a.858.858 0 0 1-.265.628.858.858 0 0 1-.628.265h-1.786a.858.858 0 0 1-.628-.265.858.858 0 0 1-.265-.628V15.18a.86.86 0 0 1 .265-.628.858.858 0 0 1 .628-.265h1.786c.242 0 .451.088.628.265a.858.858 0 0 1 .265.628zM25 8.036V9.82a.858.858 0 0 1-.265.628.858.858 0 0 1-.628.265h-1.786a.858.858 0 0 1-.627-.265.858.858 0 0 1-.265-.628V8.036c0-.242.088-.451.265-.628a.858.858 0 0 1 .627-.265h1.786c.242 0 .451.088.628.265a.858.858 0 0 1 .265.628zm7.143 0V9.82a.858.858 0 0 1-.265.628.858.858 0 0 1-.628.265h-1.786a.858.858 0 0 1-.628-.265.858.858 0 0 1-.265-.628V8.036c0-.242.089-.451.265-.628a.858.858 0 0 1 .628-.265h1.786c.242 0 .451.088.628.265a.858.858 0 0 1 .265.628zM25 46.429h10.714V3.57H3.571v42.86h10.715v-6.25c0-.242.088-.452.265-.628a.858.858 0 0 1 .628-.265h8.928c.242 0 .451.088.628.265a.858.858 0 0 1 .265.628v6.25zM39.286 1.786v46.428c0 .484-.177.902-.53 1.256-.354.353-.772.53-1.256.53H1.786c-.484 0-.902-.177-1.256-.53A1.716 1.716 0 0 1 0 48.214V1.786C0 1.302.177.884.53.53.884.177 1.302 0 1.786 0H37.5c.484 0 .902.177 1.256.53.353.354.53.772.53 1.256z"/></svg>
