<svg xmlns="http://www.w3.org/2000/svg" style="isolation:isolate" viewBox="0 0 479.567 512"><defs><clipPath id="a"><path d="M0 0h479.567v512H0z"/></clipPath></defs><g fill="#008CEB" clip-path="url(#a)"><path d="M172.278 3.285c44.886-4.313 90.81-4.473 135.615.079 41.052 9.185 56.147 53.751 52.633 91.369 34.183.719 68.526-2.157 102.629.958 16.134 1.757 21.485 24.919 11.022 36.18-10.782 11.82-28.592 6.869-42.649 9.664-.32 99.914.639 199.828-.399 299.742 1.677 38.337-32.906 72.36-71.162 70.364-80.027.479-160.134.479-240.162 0-38.096 1.916-72.918-31.788-71.241-70.044-1.039-99.994-.08-199.988-.4-300.062-15.574-3.115-38.655 3.195-46.163-15.494-5.671-11.261 1.198-29.152 14.456-30.27 34.103-3.275 68.526-.24 102.71-1.038-3.594-37.857 11.66-82.663 53.111-91.448zm-5.111 91.288h145.359c-1.917-15.574 3.354-41.291-17.092-46.004a615.455 615.455 0 0 0-111.176 0c-20.446 4.713-15.174 30.43-17.091 46.004zm-71.082 45.844c-.24 91.927.399 183.775-.32 275.702.48 12.46-1.038 25.558 3.355 37.538 6.549 13.418 24.359 10.862 36.659 12.299 72.2-.239 144.4.639 216.52-.399 15.335 1.198 33.066-7.028 30.989-24.998.799-100.074.16-200.148.24-300.142-95.841.16-191.602.08-287.443 0z"/><path d="M179.387 212.058c15.015-6.549 36.659.559 35.62 19.568 1.598 47.68 1.757 95.681-.079 143.361.559 25.957-45.525 27.315-45.924 1.039-2.875-39.934 0-80.027-1.278-120.041 1.118-14.935-3.674-34.583 11.661-43.927zM274.429 212.537c15.254-7.667 37.937.32 36.499 19.807 1.358 47.921 1.837 96.161-.239 144.081-.959 24.919-45.764 25.158-45.924-.479-2.716-39.774 0-79.708-1.198-119.562 1.358-14.615-2.955-33.784 10.862-43.847z"/></g></svg>
