<svg xmlns="http://www.w3.org/2000/svg" viewBox="0 0 24 6"><path fill="#FFF" fill-rule="evenodd" d="M18 3c0-.79.302-1.488.907-2.093S20.209 0 21 0c.79 0 1.488.302 2.093.907S24 2.209 24 3c0 .79-.302 1.488-.907 2.093S21.791 6 21 6c-.79 0-1.488-.302-2.093-.907S18 3.791 18 3zM9 3c0-.79.302-1.488.907-2.093S11.209 0 12 0c.79 0 1.488.302 2.093.907S15 2.209 15 3c0 .79-.302 1.488-.907 2.093S12.791 6 12 6c-.79 0-1.488-.302-2.093-.907S9 3.791 9 3zM6 3c0 .79-.302 1.488-.907 2.093S3.791 6 3 6c-.79 0-1.488-.302-2.093-.907S0 3.791 0 3C0 2.21.302 1.512.907.907S2.209 0 3 0c.79 0 1.488.302 2.093.907S6 2.209 6 3z" opacity=".8"/></svg>