<svg xmlns="http://www.w3.org/2000/svg" style="isolation:isolate" viewBox="0 0 480.262 512"><defs><clipPath id="a"><path d="M0 0h480.262v512H0z"/></clipPath></defs><g fill="#FFF" clip-path="url(#a)"><path d="M2.526 30.513C8.331 12.863 26.017-.075 44.654.055 122.223-.051 199.791.031 277.36.019c12.903-.023 25.688 5.441 34.56 14.819 21.904 22.761 43.749 45.57 65.606 68.367 8.379 8.849 12.738 21.011 12.668 33.138-.106 21.211.106 42.421-.106 63.62-6.322-8.155-13.267-15.852-20.999-22.703-.212-8.59-.012-17.191-.153-25.781-1.704-9.883-10.693-18.685-21.022-18.567-13.361-.247-26.734.117-40.083-.165-9.472-.129-18.896-6.228-22.069-15.276-1.633-4.089-1.363-8.567-1.41-12.867.071-14.102.035-28.203.024-42.292.07-6.922-3.514-14.008-9.86-17.145-3.783-2.28-8.331-1.563-12.514-1.657-72.07.047-144.139.012-216.208.023-8.167-.258-16.44 4.289-19.93 11.798-3.161 6.158-2.209 13.267-2.327 19.93v387.797c-.246 7.297 3.126 14.783 9.378 18.766 4.113 2.797 9.213 3.514 14.089 3.526 98.697.023 197.394-.036 296.092.023 7.52.329 15.3-2.197 20.458-7.861 5.511 5.029 10.647 10.458 15.923 15.746-8.684 10.047-21.822 15.946-35.101 15.605-99.531.024-199.051.036-298.57-.011-10.635.105-21.34-3.455-29.496-10.341-10.54-8.496-16.545-22.01-16.298-35.5C0 314.548.024 186.086 0 57.611c.176-9.048-.764-18.437 2.526-27.098z"/><path d="M149.121 177.319c23.784-23.842 55.794-39.33 89.32-42.879 29.366-3.279 59.719 2.256 85.888 16.04 29.072 15.077 52.915 40.001 66.676 69.731 13.889 29.601 17.603 63.843 10.399 95.736-4.571 20.799-13.748 40.517-26.451 57.603 32.151 32.104 64.266 64.255 96.394 96.382 3.513 3.385 6.745 7.321 7.967 12.163 2.867 9.389-.94 20.341-9.142 25.805-9.072 6.487-22.598 5.124-30.224-3.008a45423.91 45423.91 0 0 1-95.172-95.172c-1.575-1.351-3.384-4.689-5.57-2.268-36.475 25.265-84.549 32.645-126.994 19.777-34.042-10-64.149-32.668-83.279-62.551-17.78-27.333-26.076-60.612-23.397-93.08 2.574-35.312 18.461-69.366 43.585-94.279zm91.165-3.631c-32.997 4.254-63.515 24.407-80.354 53.103-11.41 18.967-16.945 41.388-15.476 63.491 1.598 28.873 15.335 56.781 36.969 75.924 19.741 17.638 45.97 27.932 72.48 28.026 23.326.364 46.675-7.086 65.571-20.74 17.486-12.574 31.34-30.259 38.955-50.436 9.318-23.855 9.859-51.07 1.41-75.242-8.179-24.289-25.147-45.465-47.04-58.779-21.445-13.267-47.521-18.79-72.515-15.347z"/><path d="M192.753 235.052c46.651-.058 93.303 0 139.966-.023 3.338 6.075 6.746 12.186 8.919 18.802-49.624.035-99.261.035-148.885.011-.083-6.263-.047-12.526 0-18.79zM192.741 277.344c51.246 0 102.481-.058 153.727.036.106 6.263.094 12.55-.869 18.766-50.953.024-101.917.024-152.882 0-.058-6.275.071-12.538.024-18.802zM192.741 321.998c48.532 0 97.064-.058 145.595.036-3.102 6.686-7.438 12.656-11.516 18.766-44.712.012-89.425.035-134.138-.012.071-6.263.071-12.526.059-18.79z"/></g></svg>
