<svg viewBox="0 0 512 512" xmlns="http://www.w3.org/2000/svg"><g fill="#fff"><path d="M125.42 0h261.75c11.13 1.33 21.52 8.46 26.01 18.85 2.6 5.31 2.98 11.32 2.83 17.14C416 56 416.02 76 416 96.01c21.34-.06 42.68-.03 64.01-.02 9.83-.09 19.51 4.72 25.41 12.57 3.81 4.83 5.85 10.84 6.58 16.91v229.68c-1.36 11.14-8.47 21.53-18.86 26.03-7.2 3.5-15.39 2.84-23.14 2.82-17.99.04-35.98-.03-53.97.03-.05 29.98 0 59.97-.03 89.95.12 6.21.15 12.67-2.51 18.44-4.33 10.71-14.86 18.14-26.22 19.58H125.5c-10.61-.97-20.63-7.29-25.64-16.75-2.53-4.66-3.88-9.93-3.85-15.23-.06-32 .03-63.99-.05-95.99-17.98-.07-35.95.01-53.93-.03-7.54.02-15.42.65-22.49-2.5C8.88 377.12 1.43 366.67 0 355.33V124.81c.82-5.09 2.36-10.16 5.29-14.45 5.77-8.83 16.1-14.54 26.7-14.36 21.33-.04 42.67-.02 64.01 0 0-21.67-.08-43.35.03-65.02.04-15.87 13.68-29.82 29.39-30.98M128 32.05c.01 21.32.02 42.63 0 63.94 85.33-.04 170.65.04 255.97-.03.06-21.32-.01-42.64.03-63.96-85.33.04-170.67-.06-256 .05m-95.95 95.94c-.09 74.67-.01 149.34-.04 224.01 21.33-.01 42.66-.05 64 .01-.05-10.67-.02-21.34-.01-32.02-6.26-.19-12.56.37-18.8-.24-8.2-1.28-14.37-9.64-13.07-17.87.81-7.79 8.07-14.13 15.91-13.88 117.36-.05 234.71.01 352.06-.03 7.75-.09 14.96 6.17 15.78 13.91 1.35 8.44-5.2 17.11-13.74 17.94-6.03.36-12.08.12-18.12.2-.03 10.66.02 21.32-.02 31.98 21.33-.03 42.67-.03 64 0-.01-74.67-.01-149.34.01-224.01-149.32.03-298.64.02-447.96 0M128 320c.01 53.33.03 106.67-.01 160 85.33-.03 170.66 0 255.99-.02.02-53.32-.01-106.65.02-159.98-85.33.01-170.67.02-256 0z"/><path d="M397.11 192.24c9.42-2.07 19.22 6.13 18.89 15.73.25 8.54-7.42 16.24-15.96 16.03-8.15.26-15.69-6.76-16.01-14.92-.72-7.87 5.3-15.55 13.08-16.84zM172.32 352.42c1.87-.42 3.8-.42 5.71-.44 52.66.04 105.32-.03 157.98.04 9.64-.38 17.76 9.43 15.76 18.82-1.24 7.41-8.21 13.28-15.73 13.18-53.35-.02-106.7-.01-160.05-.01-7.79.12-15.03-6.16-15.87-13.94-1.2-7.88 4.37-16.03 12.2-17.65zM173.15 416.25c17.25-.63 34.54-.05 51.81-.28 36.67.05 73.34 0 110.02.02 5.51-.33 11.04 2.29 14.16 6.87 5.12 6.88 3.11 17.6-4.03 22.29-4.93 3.69-11.34 2.82-17.09 2.86-48.99-.01-97.98.01-146.97-.01-5.07.19-10.63.19-14.74-3.27-6.94-4.97-8.4-15.69-3.09-22.36 2.39-3.18 6-5.43 9.93-6.12z"/></g></svg>
