<svg xmlns="http://www.w3.org/2000/svg" style="isolation:isolate" viewBox="0 0 512 330.323"><defs><clipPath id="a"><path d="M0 0h512v330.323H0z"/></clipPath></defs><g clip-path="url(#a)"><path fill="#008CEB" d="M246.132 164.335l-42.389 41.704-13.956-13.742L256 127.133l66.221 65.156-13.964 13.75-42.389-41.704v117.414c0 26.814-22.106 48.574-49.358 48.574h-88.163C57.46 330.323 0 273.771 0 204.024 0 136.085 54.528 80.657 122.88 77.841 153.278 29.894 206.551 0 265.175 0 354.717 0 427.9 69.021 432.756 155.954 477.308 160.669 512 197.781 512 242.886c0 48.285-39.787 87.437-88.857 87.437H315.235v-19.432h107.908c38.169 0 69.112-30.447 69.112-68.005 0-37.557-30.943-68.005-69.112-68.005h-9.868v-9.72c0-80.475-66.312-145.73-148.092-145.73-53.405 0-101.764 28.111-128.116 72.878l-2.857 4.847h-5.863c-59.978 0-108.594 47.847-108.594 106.859-.008 59.021 48.616 106.876 108.594 106.876h88.163c16.351 0 29.622-29.151 29.622-29.151V164.335z"/></g></svg>
