<svg xmlns="http://www.w3.org/2000/svg" style="isolation:isolate" viewBox="0 0 512 409.603"><defs><clipPath id="a"><path d="M0 0h512v409.603H0z"/></clipPath></defs><g fill="#008CEB" clip-path="url(#a)"><path d="M512 389.121c0 11.311-9.357 20.48-20.898 20.48-11.542 0-20.898-9.169-20.898-20.48v-40.944c-.022-27.888-19.82-52.361-48.336-59.416-11.191-2.769-17.972-13.904-15.147-24.87 2.825-10.967 14.187-17.613 25.378-14.844 46.929 11.611 79.864 52.322 79.901 99.114v40.96zM336.417 43.008c-11.196-2.747-18-13.868-15.197-24.841 2.802-10.972 14.151-17.64 25.347-14.893 47.06 11.546 80.109 52.345 80.109 99.227 0 46.883-33.049 87.681-80.109 99.227-11.196 2.747-22.545-3.921-25.347-14.893-2.803-10.972 4.001-22.094 15.197-24.841 28.596-7.016 48.463-31.541 48.463-59.493 0-27.951-19.867-52.477-48.463-59.493zM383.762 389.123c0 11.311-9.357 20.48-20.897 20.48-11.541 0-20.897-9.169-20.897-20.48v-40.96c0-33.828-28.816-61.44-64.594-61.44H106.39c-35.778 0-64.594 27.612-64.594 61.44v40.96c0 11.311-9.356 20.48-20.898 20.48S0 400.434 0 389.123v-40.96c0-56.658 47.736-102.4 106.39-102.4h170.984c58.652 0 106.388 45.742 106.388 102.4v40.96z"/><path fill-rule="evenodd" d="M85.492 102.4c0 56.658 47.736 102.4 106.389 102.4 58.654 0 106.39-45.742 106.39-102.4 0-56.658-47.736-102.4-106.39-102.4C133.228 0 85.492 45.742 85.492 102.4zm170.983 0c0 33.828-28.816 61.44-64.594 61.44-35.777 0-64.593-27.612-64.593-61.44s28.816-61.44 64.593-61.44c35.778 0 64.594 27.612 64.594 61.44z"/></g></svg>
