<svg xmlns="http://www.w3.org/2000/svg" style="isolation:isolate" viewBox="0 0 512 330.481"><defs><clipPath id="a"><path d="M0 0h512v330.481H0z"/></clipPath></defs><g clip-path="url(#a)"><path fill="#231F20" d="M260.144 4.778c29.583-7.338 61.224-6.221 90.183 3.335 33.875 10.876 63.704 33.396 84.107 62.471 21.49 29.959 31.772 67.459 29.727 104.205 20.418 9.31 36.63 27.277 43.677 48.579 7.44 21.766 4.757 46.65-6.859 66.459-12.021 20.867-33.744 35.875-57.584 39.443-10.266 1.725-20.707 1.073-31.061 1.16-101.523-.015-203.031.014-304.539-.015-13.602 0-27.494.696-40.733-3.074-22.231-5.8-41.88-20.592-53.8-40.197C3.866 272.005-.673 253.994.081 236.216c.942-26.378 14.196-52.074 35.368-67.88 8.382-6.453 17.996-11.093 27.987-14.429-1.189-21.969 9.034-44.127 26.682-57.308 17.75-13.776 42.503-17.503 63.588-9.803 21.882-40.69 61.572-71.128 106.438-82.018zm15.183 11.948c-40.574 6.163-78.06 30.047-100.71 64.284-4.249 6.149-7.614 12.834-11.297 19.33-2.001 3.712-7.004 4.365-10.455 2.364-13.965-6.801-30.989-6.598-44.91.217-18.765 8.861-31.308 29.699-29.467 50.508-.014 3.451 1.509 7.468-.913 10.47-2.088 2.842-5.96 3.001-9.049 4.132-27.407 7.744-48.854 32.454-52.871 60.644-3.843 24.507 5.336 50.551 23.796 67.141 14.066 12.92 33.179 20.171 52.291 19.663 112.689.218 225.363.044 338.051.087 21.607.16 43.04-10.557 55.308-28.451 12.094-17.039 15.443-39.965 8.425-59.672-6.439-18.272-20.954-33.686-39.11-40.633-3.785-1.058-6.264-4.828-5.423-8.729 2.131-25.711-2.19-52.074-13.225-75.45-14.255-31.177-39.53-57.192-70.331-72.259-27.581-13.994-59.643-18.416-90.11-13.646z"/></g></svg>
