<?xml version="1.0" encoding="UTF-8"?>
<svg width="92px" height="92px" viewBox="0 0 92 92" version="1.1" xmlns="http://www.w3.org/2000/svg" xmlns:xlink="http://www.w3.org/1999/xlink">
    <!-- Generator: Sketch 47.1 (45422) - http://www.bohemiancoding.com/sketch -->
    <title>Artboard</title>
    <desc>Created with Sketch.</desc>
    <defs></defs>
    <g id="Page-1" stroke="none" stroke-width="1" fill="none" fill-rule="evenodd">
        <g id="Artboard" fill-rule="nonzero" fill="#FFFFFF">
            <g id="icon-star">
                <path d="M45.23,0 L46.88,0 C48.69,0.66 50.7,1.47 51.53,3.37 C55.34,10.97 58.71,18.8 62.46,26.43 C70.67,27.88 78.97,28.8 87.16,30.37 C89.66,30.78 91.26,32.98 92,35.25 L92,37.49 C91.18,40.48 88.64,42.41 86.61,44.57 C81.97,49.49 77.12,54.2 72.51,59.16 C73.87,67.81 75.38,76.43 76.67,85.08 C77.19,88.36 74.51,91.02 71.62,92 L69.85,92 C61.48,88.75 54.05,83.45 46.01,79.46 C38,83.42 30.6,88.62 22.32,92 L21.16,92 C17.84,91.56 14.78,88.58 15.33,85.06 C16.6,76.41 18.13,67.79 19.49,59.15 C14.67,54.07 9.71,49.13 4.87,44.06 C2.99,42.09 0.75,40.24 0,37.5 L0,35.41 C0.64,33.04 2.3,30.79 4.85,30.37 C13.03,28.82 21.31,27.83 29.53,26.45 C33.16,19.05 36.47,11.51 40.07,4.1 C40.93,1.88 42.98,0.54 45.23,-5.32907052e-15 L45.23,0 Z" id="Shape"></path>
            </g>
        </g>
    </g>
</svg>
