<svg xmlns="http://www.w3.org/2000/svg" viewBox="0 0 16.005 29.714"><g transform="translate(-21.999 -1.857)"><path class="a" d="M15.805,7.821a.671.671,0,0,1,.125.786L6.287,29.268a.785.785,0,0,1-.75.446,1.5,1.5,0,0,1-.25-.036.761.761,0,0,1-.455-.339.677.677,0,0,1-.08-.536L8.269,14.375l-7.25,1.8a.952.952,0,0,1-.214.018A.829.829,0,0,1,.252,16a.667.667,0,0,1-.232-.7L3.609.571A.765.765,0,0,1,3.894.161.81.81,0,0,1,4.394,0h5.857a.793.793,0,0,1,.571.223.707.707,0,0,1,.232.527.732.732,0,0,1-.089.321L7.912,9.339l7.071-1.75a.977.977,0,0,1,.214-.036A.837.837,0,0,1,15.805,7.821Z" transform="translate(21.998 1.857)" fill="#262935" /></g></svg>
