<svg xmlns="http://www.w3.org/2000/svg" style="isolation:isolate" viewBox="0 0 11.037 15.2"><defs><clipPath id="a"><path d="M0 0h11.037v15.2H0z"/></clipPath></defs><g clip-path="url(#a)"><path fill="#008CEB" fill-rule="evenodd" d="M9.941 6.231H8.846V3.327A3.331 3.331 0 0 0 5.519 0a3.33 3.33 0 0 0-3.327 3.327v2.904H1.096C.492 6.231 0 6.722 0 7.327v6.777c0 .604.492 1.096 1.096 1.096h8.845c.605 0 1.096-.492 1.096-1.096V7.327c0-.605-.491-1.096-1.096-1.096zM2.922 3.327A2.6 2.6 0 0 1 5.519.731a2.599 2.599 0 0 1 2.596 2.596v2.904H2.922V3.327zM9.941 14.47a.366.366 0 0 0 .366-.366V7.327a.366.366 0 0 0-.366-.366H1.096a.365.365 0 0 0-.365.366v6.777c0 .202.163.366.365.366h8.845z"/></g></svg>
