<svg xmlns="http://www.w3.org/2000/svg" viewBox="0 0 59 19.85" width="59" height="19.85" isolation="isolate"><defs><clipPath id="_clipPath_TrOPUMHGjWfTf37HM7RCEAL2i1BfDi4n"><rect width="59" height="19.85"/></clipPath></defs><g clip-path="url(#_clipPath_TrOPUMHGjWfTf37HM7RCEAL2i1BfDi4n)"><g id="Group"><path d="M54.54 8.75C54.49 10.79 54.16 12.77 53.42 14.69 53.13 15.46 52.74 16.18 52.13 16.75 51.47 17.41 50.63 17.75 49.75 17.98 48.64 18.29 47.51 18.36 46.37 18.37 44.64 18.39 42.93 18.17 41.24 17.81 39.58 17.46 38.25 16.58 37.19 15.25 35.83 13.56 34.95 11.63 34.47 9.52 34.25 8.55 34.05 7.56 34.08 6.56 34.09 6.12 34.13 5.69 34.21 5.26 34.41 4.2 35.06 3.5 36.04 3.11 37.03 2.71 38.07 2.46 39.11 2.25 40.27 2.03 41.43 1.86 42.61 1.78 43.54 1.72 44.46 1.69 45.09 1.67 47.56 1.79 49.72 1.97 51.82 2.57 52.21 2.68 52.58 2.85 52.95 3.03 53.29 3.19 53.56 3.45 53.73 3.79 53.92 4.18 54.12 4.56 54.26 4.95 54.44 5.42 54.48 5.92 54.49 6.4 54.52 7.19 54.56 7.97 54.54 8.75ZM24.31 9.38C23.92 11.07 23.26 12.64 22.39 14.13 21.91 14.96 21.38 15.72 20.68 16.38 19.78 17.24 18.69 17.75 17.49 18.06 15.07 18.7 12.6 18.86 10.12 18.48 9.64 18.41 9.16 18.28 8.68 18.16 7.69 17.91 6.95 17.34 6.38 16.48 5.75 15.55 5.37 14.52 5.1 13.44 4.76 12.02 4.58 10.58 4.44 9.12 4.35 8.29 4.37 7.44 4.48 6.61 4.53 6.19 4.56 5.77 4.65 5.35 4.99 3.88 5.9 2.95 7.35 2.57 8.68 2.22 10.04 2.02 11.41 1.91 12.43 1.82 13.45 1.78 14.1 1.74 16.43 1.77 18.4 1.92 20.32 2.36 21.12 2.54 21.91 2.71 22.64 3.09 22.99 3.28 23.33 3.5 23.64 3.76 24.16 4.18 24.41 4.75 24.52 5.41 24.75 6.75 24.62 8.07 24.31 9.38ZM58.9 1.44C58.89 1.25 58.8 1.13 58.62 1.08 58.49 1.05 58.36 1.01 58.23 0.99 56.4 0.71 54.55 0.43 52.7 0.3 51.22 0.19 49.73 0.13 48.24 0.06 45.38-0.07 42.52 0 39.68 0.36 37.94 0.58 36.22 0.89 34.55 1.43 33.7 1.71 32.88 2.03 32.03 2.29 30.71 2.71 29.36 2.9 27.99 2.64 27.16 2.48 26.35 2.25 25.54 2 24.11 1.52 22.66 1.06 21.16 0.79 18.24 0.25 15.3 0 12.56 0.03 10.33 0.03 8.33 0.11 6.33 0.35 4.69 0.55 3.06 0.77 1.43 0.98 1.08 1.03 0.73 1.14 0.4 1.23 0.22 1.27 0.1 1.4 0.09 1.6 0.06 2.56 0.02 3.53 0 4.5 0 4.64 0.03 4.78 0.06 4.93 0.07 5.05 0.14 5.14 0.26 5.19 0.39 5.25 0.51 5.3 0.63 5.38 1.16 5.76 1.42 6.32 1.63 6.91 1.77 7.32 1.87 7.76 1.99 8.2 2.06 8.46 2.16 8.72 2.22 8.99 2.5 10.25 2.77 11.52 3.06 12.77 3.33 13.98 3.7 15.16 4.27 16.26 4.91 17.48 5.83 18.42 7.13 18.97 7.91 19.29 8.73 19.5 9.57 19.63 11.08 19.87 12.58 19.9 14.09 19.79 15.63 19.68 17.15 19.44 18.62 19 19.72 18.67 20.75 18.2 21.63 17.46 22.97 16.32 24.06 14.96 24.89 13.4 25.71 11.84 26.3 10.18 26.82 8.51 26.97 8.02 27.11 7.54 27.28 7.07 27.54 6.37 28.05 5.94 28.78 5.83 29.02 5.79 29.27 5.78 29.5 5.79 30.06 5.83 30.6 5.95 30.97 6.41 31.13 6.61 31.28 6.84 31.39 7.07 31.59 7.53 31.79 8 31.94 8.48 32.59 10.55 33.46 12.54 34.56 14.41 35.47 15.97 36.67 17.23 38.27 18.09 39.39 18.71 40.6 19.1 41.85 19.35 43.75 19.71 45.65 19.8 47.57 19.72 48.73 19.67 49.87 19.52 50.99 19.19 52.13 18.85 53.13 18.29 53.89 17.34 54.37 16.72 54.73 16.03 55.03 15.3 55.65 13.79 56.06 12.2 56.42 10.6 56.6 9.82 56.79 9.03 56.97 8.25 57.07 7.84 57.2 7.44 57.31 7.04 57.42 6.66 57.51 6.27 57.75 5.95 57.99 5.62 58.23 5.29 58.63 5.15 58.81 5.09 58.9 4.96 58.94 4.8 58.97 4.68 59 4.55 59 4.41 59 3.83 59 3.26 58.98 2.68 58.97 2.26 58.93 1.85 58.9 1.44Z" fill="#262935" /></g></g></svg>
