<svg xmlns="http://www.w3.org/2000/svg" viewBox="0 0 12 12"><path fill="#FFF" d="M8.592 6.554l.12.063.505.255c1.11.555 1.51.788 1.852 1.13.396.396.65.916.795 1.507.094.377.131.729.136 1.014A1.457 1.457 0 0 1 10.545 12h-9.09A1.455 1.455 0 0 1 0 10.523c.005-.285.042-.637.135-1.014.146-.591.4-1.11.796-1.507.342-.342.743-.575 1.852-1.13.312-.156.572-.29.769-.395-.576-.855-.9-1.778-.9-2.624 0-.643.017-.97.1-1.384a3.38 3.38 0 0 1 .292-.862C3.54.624 4.512 0 6 0s2.46.624 2.956 1.607c.135.268.23.555.292.863.083.415.1.74.1 1.383 0 .846-.324 1.768-.9 2.624l.144.077zm.137 1.294a38.957 38.957 0 0 1-.518-.262l-.127-.067c-.408-.215-.658-.363-.799-.496l-.368-.348.32-.393c.653-.804 1.02-1.69 1.02-2.429 0-.572-.014-.847-.078-1.168a2.301 2.301 0 0 0-.197-.587C7.668 1.476 7.068 1.091 6 1.091s-1.668.385-1.982 1.007a2.3 2.3 0 0 0-.196.587c-.065.321-.08.596-.08 1.168 0 .739.368 1.626 1.022 2.429l.32.393-.369.348c-.202.19-.568.387-1.444.824-.988.495-1.345.702-1.569.926-.424.425-.601 1.142-.611 1.767a.364.364 0 0 0 .363.37h9.091a.364.364 0 0 0 .364-.37c-.01-.624-.187-1.342-.612-1.767-.224-.224-.58-.431-1.568-.925z"/></svg>
