<svg xmlns="http://www.w3.org/2000/svg" viewBox="0 0 482.629 511.94" style="isolation:isolate"><defs><clipPath id="a"><path d="M0 0h482.629v511.94H0z"/></clipPath></defs><g fill="#FFF" clip-path="url(#a)"><path d="M473.301 457.484L369.689 353.873c8.249-15.564 12.584-32.929 12.584-50.701 0-36.396-18.543-70.534-48.751-90.501V94.362a10.2 10.2 0 0 0-2.987-7.211L246.372 2.987A10.202 10.202 0 0 0 239.161 0H10.198C4.567 0 0 4.566 0 10.198v436.205c0 5.632 4.567 10.198 10.198 10.198h313.126c5.631 0 10.198-4.566 10.198-10.198v-38.469l94.663 94.663c6.025 6.025 14.037 9.343 22.557 9.343 8.521 0 16.533-3.318 22.558-9.343 12.439-12.438 12.439-32.676.001-45.113zM298.705 84.164H249.36V34.819l24.672 24.672 24.673 24.673zm14.421 320.062v31.979H20.396V20.396h208.567v73.966c0 5.633 4.566 10.198 10.198 10.198h73.965v97.556l.009.015a108.546 108.546 0 0 0-39.261-7.358c-59.771 0-108.399 48.627-108.399 108.398 0 59.77 48.628 108.397 108.399 108.397 13.486 0 26.805-2.523 39.261-7.358l-.009.016zm7.68-26.603a85.256 85.256 0 0 1-2.625 1.594c-13.391 7.822-28.711 11.956-44.306 11.956-48.525 0-88.003-39.477-88.003-88.001 0-48.525 39.478-88.002 88.003-88.002 15.594 0 30.915 4.134 44.307 11.956 26.951 15.741 43.694 44.879 43.694 76.046 0 16.673-4.685 32.903-13.552 46.933-6.97 11.032-16.486 20.547-27.518 27.518zm138.072 110.552a11.43 11.43 0 0 1-8.136 3.369 11.425 11.425 0 0 1-8.135-3.369l-100.66-100.661-.009-.001a109.996 109.996 0 0 0 16.277-16.276l.001.008 100.662 100.662c4.485 4.485 4.485 11.783 0 16.268z"/><path d="M237.07 243.124c-21.05 12.925-33.617 35.373-33.617 60.048 0 5.632 4.567 10.198 10.198 10.198 5.632 0 10.198-4.566 10.198-10.198 0-17.531 8.933-33.48 23.893-42.667 4.801-2.947 6.302-9.227 3.354-14.026-2.947-4.8-9.227-6.303-14.026-3.355zM309.343 242.329c-10.728-6.266-22.993-9.578-35.469-9.578-5.632 0-10.198 4.566-10.198 10.198 0 5.633 4.566 10.198 10.198 10.198 8.865 0 17.573 2.35 25.182 6.794a10.198 10.198 0 0 0 13.95-3.662c2.841-4.864 1.201-11.11-3.663-13.95z"/></g></svg>
