<svg xmlns="http://www.w3.org/2000/svg" viewBox="0 0 19.95 14"><path class="a" d="M9.97 14a10.28 10.28 0 0 1-6.05-1.92A10.84 10.84 0 0 1 0 7 10.84 10.84 0 0 1 3.92 1.92 10.28 10.28 0 0 1 9.97 0a10.28 10.28 0 0 1 6.06 1.92A10.84 10.84 0 0 1 19.95 7a10.84 10.84 0 0 1-3.92 5.08A10.28 10.28 0 0 1 9.97 14Zm0-11.68A4.31 4.31 0 0 0 6.77 3.71 4.61 4.61 0 0 0 5.43 7a4.61 4.61 0 0 0 1.34 3.29 4.39 4.39 0 0 0 6.41 0A4.61 4.61 0 0 0 14.51 7a4.61 4.61 0 0 0-1.33-3.29A4.31 4.31 0 0 0 9.97 2.32Zm0 7.46A2.61 2.61 0 0 1 8.06 8.97 2.71 2.71 0 0 1 7.26 7a2.71 2.71 0 0 1 0.8-1.97 2.66 2.66 0 0 1 3.83 0 2.71 2.71 0 0 1 0.8 1.97 2.71 2.71 0 0 1-0.8 1.97A2.61 2.61 0 0 1 9.97 9.78Z" transform="translate(0)"/></svg>
