<svg xmlns="http://www.w3.org/2000/svg" style="isolation:isolate" viewBox="0 0 512 512"><defs><clipPath id="a"><path d="M0 0h512v512H0z"/></clipPath></defs><g clip-path="url(#a)"><path fill-rule="evenodd" d="M368 321.333l5.333-9.333c21.334-33.778 32-70.222 32-109.333 0-56.001-19.777-103.778-59.333-143.333C306.444 19.778 258.667 0 202.667 0 146.666 0 98.889 19.778 59.334 59.334 19.778 98.889 0 146.666 0 202.667c0 56 19.778 104 59.334 144 39.555 40 87.332 60 143.333 60 38.222 0 75.11-11.111 110.666-33.334l9.334-6.666 144 145.333L512 466.667 368 321.333zM202.667 42.667c44.444 0 82.222 15.555 113.333 46.666 32 32 48 69.778 48 113.334S348 284 316 316c-31.111 31.111-68.889 46.667-113.333 46.667-44.445 0-82.222-15.556-113.334-46.667-31.111-31.111-46.666-68.889-46.666-113.333 0-44.445 15.555-82.222 46.666-113.334 31.112-31.111 68.889-46.666 113.334-46.666z"/></g></svg>
