<svg xmlns="http://www.w3.org/2000/svg" viewBox="0 0 12 16"><path fill="#008ceb" fill-rule="evenodd" d="M0 0v16h5.143v-3.111h1.714V16H12V0H0zm1.714 1.778H3.43v1.778H1.714V1.778zm3.429 0h1.714v1.778H5.143V1.778zm3.428 0h1.715v1.778H8.57V1.778zM1.714 5.333H3.43v1.778H1.714V5.333zm3.429 0h1.714v1.778H5.143V5.333zm3.428 0h1.715v1.778H8.57V5.333zM1.714 8.89H3.43v1.778H1.714V8.889zm3.429 0h1.714v1.778H5.143V8.889zm3.428 0h1.715v1.778H8.57V8.889zm-6.857 3.555H3.43v1.778H1.714v-1.778zm6.857 0h1.715v1.778H8.57v-1.778z"/></svg>
