<svg xmlns="http://www.w3.org/2000/svg" viewBox="0 0 48 48"><path fill="#008ceb" d="M21.173 48a4.153 4.153 0 0 1-2.452-.778 4.068 4.068 0 0 1-1.528-2.077l-1.587-4.7-4.414 1.529a5.022 5.022 0 0 1-1.443.259 4.016 4.016 0 0 1-2.928-1.154 3.942 3.942 0 0 1-1.168-2.913 4.1 4.1 0 0 1 .793-2.452 4.16 4.16 0 0 1 2.064-1.531l4.5-1.529-3.029-9.029-4.5 1.558a4.758 4.758 0 0 1-1.385.23 4 4 0 0 1-2.913-1.168A3.927 3.927 0 0 1 0 21.346a4.1 4.1 0 0 1 .793-2.452 4.157 4.157 0 0 1 2.063-1.529l4.529-1.529-1.53-4.586a4.291 4.291 0 0 1-.23-1.355 4.073 4.073 0 0 1 1.211-2.958 4 4 0 0 1 2.943-1.226 4.153 4.153 0 0 1 2.452.779 4.064 4.064 0 0 1 1.528 2.076l1.558 4.615 8.942-3.029L22.7 5.539a4.293 4.293 0 0 1-.23-1.356A4.062 4.062 0 0 1 23.7 1.24 3.989 3.989 0 0 1 26.625 0a4.25 4.25 0 0 1 4.01 2.856L32.163 7.5l4.673-1.586a4.493 4.493 0 0 1 1.241-.174 4.206 4.206 0 0 1 2.957 1.14 3.735 3.735 0 0 1 1.226 2.841 3.623 3.623 0 0 1-.865 2.351 4.681 4.681 0 0 1-2.135 1.486l-4.529 1.558 3.028 9.115 4.731-1.615a4.2 4.2 0 0 1 1.327-.23 4.121 4.121 0 0 1 2.983 1.167 3.937 3.937 0 0 1 1.2 2.928 3.685 3.685 0 0 1-2.682 3.75l-4.962 1.7 1.615 4.817a4.31 4.31 0 0 1 .2 1.356 4.087 4.087 0 0 1-1.211 2.942 3.944 3.944 0 0 1-2.913 1.24 4.219 4.219 0 0 1-2.467-.778 4.044 4.044 0 0 1-1.543-2.077l-1.587-4.759-8.94 3.059 1.587 4.73a4.293 4.293 0 0 1 .23 1.356 4.087 4.087 0 0 1-1.211 2.942A3.977 3.977 0 0 1 21.173 48zm5.654-30.173l-8.942 3.086 3.028 9.029 8.942-3.028-3.028-9.086z"/></svg>
